<svg id="visual" viewBox="0 0 960 540" width="960" height="540" xmlns="http://www.w3.org/2000/svg" xmlns:xlink="http://www.w3.org/1999/xlink" version="1.1"><path d="M0 244L17.8 228.7C35.7 213.3 71.3 182.7 106.8 178.2C142.3 173.7 177.7 195.3 213.2 206.2C248.7 217 284.3 217 320 221.5C355.7 226 391.3 235 426.8 211.7C462.3 188.3 497.7 132.7 533.2 113.8C568.7 95 604.3 113 640 114.7C675.7 116.3 711.3 101.7 746.8 109.7C782.3 117.7 817.7 148.3 853.2 165.5C888.7 182.7 924.3 186.3 942.2 188.2L960 190L960 0L942.2 0C924.3 0 888.7 0 853.2 0C817.7 0 782.3 0 746.8 0C711.3 0 675.7 0 640 0C604.3 0 568.7 0 533.2 0C497.7 0 462.3 0 426.8 0C391.3 0 355.7 0 320 0C284.3 0 248.7 0 213.2 0C177.7 0 142.3 0 106.8 0C71.3 0 35.7 0 17.8 0L0 0Z" fill="#80c689"></path><path d="M0 309L17.8 291C35.7 273 71.3 237 106.8 235.2C142.3 233.3 177.7 265.7 213.2 278.2C248.7 290.7 284.3 283.3 320 296.8C355.7 310.3 391.3 344.7 426.8 335.7C462.3 326.7 497.7 274.3 533.2 246.5C568.7 218.7 604.3 215.3 640 207.3C675.7 199.3 711.3 186.7 746.8 192.8C782.3 199 817.7 224 853.2 236.5C888.7 249 924.3 249 942.2 249L960 249L960 188L942.2 186.2C924.3 184.3 888.7 180.7 853.2 163.5C817.7 146.3 782.3 115.7 746.8 107.7C711.3 99.7 675.7 114.3 640 112.7C604.3 111 568.7 93 533.2 111.8C497.7 130.7 462.3 186.3 426.8 209.7C391.3 233 355.7 224 320 219.5C284.3 215 248.7 215 213.2 204.2C177.7 193.3 142.3 171.7 106.8 176.2C71.3 180.7 35.7 211.3 17.8 226.7L0 242Z" fill="#6f9366"></path><path d="M0 444L17.8 438.5C35.7 433 71.3 422 106.8 427.3C142.3 432.7 177.7 454.3 213.2 462.5C248.7 470.7 284.3 465.3 320 468C355.7 470.7 391.3 481.3 426.8 478.7C462.3 476 497.7 460 533.2 456.5C568.7 453 604.3 462 640 459.3C675.7 456.7 711.3 442.3 746.8 445C782.3 447.7 817.7 467.3 853.2 472.7C888.7 478 924.3 469 942.2 464.5L960 460L960 247L942.2 247C924.3 247 888.7 247 853.2 234.5C817.7 222 782.3 197 746.8 190.8C711.3 184.7 675.7 197.3 640 205.3C604.3 213.3 568.7 216.7 533.2 244.5C497.7 272.3 462.3 324.7 426.8 333.7C391.3 342.7 355.7 308.3 320 294.8C284.3 281.3 248.7 288.7 213.2 276.2C177.7 263.7 142.3 231.3 106.8 233.2C71.3 235 35.7 271 17.8 289L0 307Z" fill="#566449"></path><path d="M0 541L17.8 541C35.7 541 71.3 541 106.8 541C142.3 541 177.7 541 213.2 541C248.7 541 284.3 541 320 541C355.7 541 391.3 541 426.8 541C462.3 541 497.7 541 533.2 541C568.7 541 604.3 541 640 541C675.7 541 711.3 541 746.8 541C782.3 541 817.7 541 853.2 541C888.7 541 924.3 541 942.2 541L960 541L960 458L942.2 462.5C924.3 467 888.7 476 853.2 470.7C817.7 465.3 782.3 445.7 746.8 443C711.3 440.3 675.7 454.7 640 457.3C604.3 460 568.7 451 533.2 454.5C497.7 458 462.3 474 426.8 476.7C391.3 479.3 355.7 468.7 320 466C284.3 463.3 248.7 468.7 213.2 460.5C177.7 452.3 142.3 430.7 106.8 425.3C71.3 420 35.7 431 17.8 436.5L0 442Z" fill="#373932"></path></svg>